<?xml version="1.0" standalone="no"?>
<!DOCTYPE svg PUBLIC "-//W3C//DTD SVG 20010904//EN"
 "http://www.w3.org/TR/2001/REC-SVG-20010904/DTD/svg10.dtd">
<svg version="1.0" xmlns="http://www.w3.org/2000/svg"
 width="1000.000000pt" height="1000.000000pt" viewBox="0 0 1000.000000 1000.000000"
 preserveAspectRatio="xMidYMid meet">

<g transform="translate(0.000000,1000.000000) scale(0.100000,-0.100000)"
fill="#000000" stroke="none">
<path d="M0 5000 l0 -5000 5000 0 5000 0 0 5000 0 5000 -5000 0 -5000 0 0
-5000z m4944 4688 c4 -29 9 -74 12 -100 5 -42 9 -48 29 -48 20 0 25 -6 30 -37
16 -97 12 -91 70 -98 53 -7 54 -8 60 -46 6 -37 8 -38 53 -41 l47 -3 32 -65
c17 -36 41 -92 52 -125 19 -54 26 -63 64 -80 l42 -20 5 -85 c3 -54 12 -97 23
-118 19 -35 76 -81 147 -117 44 -22 46 -26 70 -107 39 -137 44 -146 92 -159
24 -6 51 -18 62 -27 44 -40 107 -215 121 -339 l7 -61 49 -7 c46 -6 54 -12 113
-79 79 -92 174 -216 216 -284 28 -47 31 -56 21 -84 -24 -68 -14 -145 39 -297
28 -80 50 -156 50 -170 0 -14 -11 -44 -25 -66 -32 -53 -31 -73 8 -125 30 -42
32 -50 37 -155 l5 -110 65 -22 c36 -12 77 -22 92 -23 20 0 29 -6 33 -22 13
-55 75 -338 75 -342 0 -2 23 -21 51 -42 61 -45 79 -82 79 -164 0 -55 3 -63 35
-99 19 -21 35 -43 35 -48 0 -16 -101 -93 -161 -124 -62 -31 -69 -41 -69 -104
0 -32 13 -69 52 -146 62 -123 72 -189 40 -252 l-20 -38 21 -14 c12 -7 54 -17
92 -20 128 -13 253 -77 283 -144 23 -51 42 -71 67 -71 40 0 50 -25 49 -124 0
-67 -5 -101 -18 -128 l-18 -37 37 -69 c62 -114 142 -202 219 -241 37 -18 68
-32 71 -30 2 2 -1 45 -7 94 -13 113 -5 302 13 340 8 15 24 34 36 42 27 18 32
9 68 -113 35 -118 44 -240 21 -284 -31 -64 -17 -121 34 -138 25 -9 30 -17 30
-41 l0 -31 556 0 556 0 -6 23 c-4 12 -10 94 -13 182 -8 233 18 399 73 465 14
16 30 30 34 30 5 0 16 -33 25 -72 9 -40 30 -119 46 -176 l31 -103 -21 -102
c-33 -159 -25 -214 32 -239 33 -13 330 -18 343 -5 4 3 2 88 -4 189 -11 185 -7
312 10 302 5 -3 6 6 2 20 -4 16 -2 26 5 26 6 0 11 7 11 15 0 9 9 34 21 57 l21
41 30 -30 30 -30 -17 -119 c-14 -97 -15 -131 -6 -179 7 -33 15 -113 18 -177
l6 -118 47 0 c34 0 50 -4 54 -16 11 -28 7 -32 -47 -44 l-54 -11 -6 -136 c-4
-75 -7 -212 -7 -305 0 -92 -4 -168 -9 -168 -5 0 -22 -3 -39 -6 -28 -6 -31 -4
-42 32 -7 23 -14 148 -17 307 l-6 267 -36 0 c-20 -1 -67 -5 -104 -9 -60 -8
-73 -14 -112 -50 -32 -29 -53 -41 -75 -41 -38 0 -72 -34 -88 -88 -15 -50 -15
-193 -1 -392 12 -156 3 -260 -22 -276 -6 -3 -26 -3 -45 0 l-34 7 0 127 c0 140
-16 483 -26 549 -8 52 -31 62 -164 70 -79 5 -118 1 -230 -22 -74 -14 -146 -25
-160 -22 -37 7 -417 -7 -426 -15 -13 -13 14 -58 41 -68 31 -12 31 -27 2 -71
-23 -35 -84 -71 -172 -101 -32 -11 -92 -51 -165 -109 -116 -93 -227 -156 -256
-145 -8 3 -13 2 -10 -2 3 -5 -19 -19 -49 -31 -76 -31 -80 -40 -60 -101 17 -51
17 -51 -9 -90 -29 -44 -124 -127 -189 -164 -23 -13 -68 -30 -100 -37 -61 -13
-70 -22 -81 -80 -7 -38 -27 -61 -92 -103 -30 -19 -56 -52 -95 -118 -95 -162
-136 -193 -247 -186 l-65 4 -48 -67 c-43 -58 -99 -111 -99 -93 0 4 -6 1 -14
-5 -7 -6 -16 -42 -19 -85 -11 -129 -36 -178 -147 -286 -53 -52 -106 -111 -118
-131 -20 -37 -20 -37 -1 -112 17 -66 18 -79 6 -108 l-13 -33 -39 102 -38 102
-25 -22 c-44 -41 -63 -94 -68 -184 -2 -47 0 -93 6 -103 5 -10 12 -90 16 -177
7 -169 7 -168 -45 -257 l-28 -48 -16 25 c-10 14 -17 30 -17 35 0 5 -5 11 -11
13 -11 4 -21 27 -61 143 -14 42 -35 75 -69 110 -37 38 -49 58 -49 81 0 42 -26
72 -101 117 -35 21 -75 46 -88 55 l-24 16 7 -74 c5 -53 20 -108 51 -185 66
-166 202 -592 192 -602 -6 -6 -82 133 -133 242 -40 86 -59 83 -30 -5 23 -71
20 -102 -25 -277 -49 -192 -63 -237 -101 -331 -26 -63 -36 -76 -70 -93 -25
-13 -49 -18 -64 -15 -20 5 -24 13 -24 44 0 20 -5 106 -12 190 l-11 153 -46 24
c-152 78 -344 256 -457 426 l-71 106 -5 104 c-4 74 -11 117 -26 149 -26 59
-73 122 -109 148 l-30 21 -52 -81 c-28 -44 -54 -79 -56 -76 -3 2 9 51 26 109
36 125 36 194 -1 234 -13 14 -32 25 -42 25 -36 0 -56 20 -73 71 -14 41 -26 56
-63 80 -25 15 -60 33 -79 40 -18 6 -33 13 -33 15 0 60 -27 211 -46 256 -13 32
-24 77 -24 101 0 64 -25 84 -87 70 -37 -9 -55 -8 -80 2 -18 8 -33 17 -33 20 0
3 5 3 12 -1 7 -4 8 -3 4 4 -4 6 -13 9 -20 6 -8 -3 -23 6 -34 21 -17 22 -26 25
-59 20 -54 -8 -93 20 -137 97 -32 57 -135 190 -242 311 -37 41 -46 47 -82 47
-37 0 -42 3 -64 43 -23 40 -25 42 -67 39 -53 -4 -78 12 -132 84 l-42 57 17 52
c21 66 20 77 -4 108 -15 18 -46 34 -107 52 -72 22 -97 36 -157 87 -88 74 -144
104 -229 119 -58 11 -66 15 -70 39 -8 39 -53 77 -118 101 -63 23 -73 39 -35
57 13 6 33 24 45 40 l21 30 -28 10 c-47 19 -141 31 -327 42 -99 6 -220 18
-270 26 -58 10 -113 14 -155 9 -68 -6 -140 -24 -140 -34 -3 -150 -21 -726 -23
-727 -1 -1 -23 -5 -49 -9 l-48 -7 0 340 0 340 -70 65 c-109 101 -185 127 -371
127 l-98 0 -6 -37 c-3 -21 -9 -47 -12 -58 -3 -11 -8 -132 -12 -270 -5 -217 -8
-250 -22 -253 -9 -1 -26 5 -38 15 -22 18 -22 20 -12 133 7 82 7 128 -1 160 -6
25 -12 96 -14 158 -4 124 -17 161 -63 182 l-26 12 25 14 c14 7 33 13 43 14 13
0 16 6 12 22 -26 120 -31 361 -9 438 8 30 20 79 26 108 9 42 17 56 39 68 15 7
30 10 33 6 2 -4 12 -46 22 -92 14 -72 16 -119 11 -311 l-7 -226 128 -6 c70 -4
184 -7 254 -7 l127 0 3 258 3 257 33 82 c43 106 57 118 78 67 42 -99 58 -221
58 -446 l1 -218 463 0 462 0 32 65 32 64 -18 134 c-11 82 -15 151 -11 178 7
44 60 165 77 175 5 4 20 -4 34 -17 l24 -22 0 -253 0 -253 33 11 c17 6 50 29
72 52 22 24 79 64 128 91 117 66 151 95 184 163 27 55 28 63 28 202 0 140 1
147 28 192 34 59 96 110 178 147 60 27 192 61 237 61 28 0 42 78 42 231 0 128
0 129 35 195 19 36 35 71 35 78 0 7 -25 20 -54 30 -64 19 -167 93 -184 131
-30 64 -6 112 121 244 121 125 132 147 125 265 -6 96 12 180 46 215 18 17 42
26 100 34 l76 11 0 50 c0 134 44 266 101 306 34 25 37 59 17 166 -9 48 -9 90
1 176 l11 113 45 39 c44 37 45 40 45 98 0 79 19 114 70 128 47 13 62 33 85
118 16 55 23 66 68 99 l50 37 -6 63 -6 63 39 31 c45 36 60 72 60 143 1 82 26
125 96 161 70 36 95 77 115 186 l12 70 88 55 c49 31 91 64 93 73 3 9 10 52 15
97 13 109 24 129 82 156 50 22 66 47 83 131 5 22 12 27 36 27 25 0 30 4 30 24
0 37 21 86 41 97 16 8 19 21 19 90 0 47 10 126 25 195 14 64 25 117 25 120 0
2 6 4 14 4 10 0 16 -17 20 -52z"/>
<path d="M5129 1442 c-13 -20 -39 -44 -57 -53 l-34 -15 45 -37 c24 -20 50 -49
56 -66 9 -21 21 -31 45 -35 18 -3 50 -15 71 -26 50 -25 49 -25 31 8 -9 15 -28
59 -44 97 -32 81 -68 151 -80 159 -5 3 -20 -11 -33 -32z"/>
</g>
</svg>
