<?xml version="1.0" standalone="no"?>
<!DOCTYPE svg PUBLIC "-//W3C//DTD SVG 20010904//EN"
 "http://www.w3.org/TR/2001/REC-SVG-20010904/DTD/svg10.dtd">
<svg version="1.0" xmlns="http://www.w3.org/2000/svg"
 width="3500.000000pt" height="3500.000000pt" viewBox="0 0 3500.000000 3500.000000"
 preserveAspectRatio="xMidYMid meet">
<metadata>
Created by potrace 1.16, written by Peter Selinger 2001-2019
</metadata>
<g transform="translate(0.000000,3500.000000) scale(0.100000,-0.100000)"
fill="#000000" stroke="none">
<path d="M0 17500 l0 -17500 17500 0 17500 0 0 17500 0 17500 -17500 0 -17500
0 0 -17500z m16617 16048 c-2 -240 0 -280 16 -333 25 -80 61 -148 102 -194
l35 -38 0 -142 0 -141 95 0 95 0 0 90 0 90 80 0 80 0 0 -138 0 -139 40 -32 40
-32 0 -209 0 -210 55 0 55 0 0 73 c0 41 3 122 7 180 l6 107 49 0 c92 0 104
-17 119 -166 15 -145 16 -148 86 -171 70 -24 76 -40 38 -117 -31 -64 -54 -183
-55 -282 0 -74 15 -173 28 -186 4 -4 54 -13 110 -20 56 -6 107 -15 112 -18 7
-4 15 -85 21 -206 5 -109 11 -200 13 -201 2 -2 84 -18 182 -36 l179 -33 3
-256 2 -255 118 -78 c204 -137 316 -274 352 -432 11 -49 15 -54 55 -72 50 -22
41 0 115 -281 23 -85 43 -163 46 -172 4 -14 17 -18 60 -18 87 0 119 -19 149
-87 14 -32 43 -76 64 -98 83 -88 81 -82 81 -242 l0 -145 45 -82 c34 -62 47
-100 55 -157 6 -41 29 -204 50 -364 29 -207 44 -293 54 -301 9 -6 90 -53 181
-105 92 -51 171 -101 175 -109 5 -9 34 -126 66 -260 l56 -244 110 -153 109
-153 64 -224 c74 -260 120 -387 181 -506 92 -179 257 -345 469 -472 82 -49
311 -163 380 -189 67 -25 70 -30 86 -176 19 -175 -3 -355 -59 -483 -10 -25
-43 -76 -72 -114 l-53 -70 12 -129 c20 -215 81 -526 132 -676 15 -43 19 -84
19 -201 l0 -148 55 -47 c67 -57 80 -80 117 -214 58 -207 89 -236 318 -291 127
-30 147 -42 159 -88 16 -58 33 -278 29 -371 l-3 -84 -80 -48 c-44 -26 -105
-69 -134 -96 l-55 -49 36 -76 c20 -42 72 -129 116 -194 150 -221 166 -290 99
-425 -41 -84 -43 -99 -23 -196 23 -110 62 -207 151 -378 111 -213 121 -242
146 -427 l22 -158 -39 -55 c-32 -47 -38 -64 -37 -104 1 -42 8 -59 47 -114 l46
-65 0 -251 0 -251 39 -78 c37 -75 40 -86 51 -223 l12 -144 35 -32 c70 -64 470
-167 754 -194 165 -15 377 -8 446 16 45 15 52 21 48 39 -13 55 -26 238 -36
523 -15 422 7 969 41 1033 19 35 269 175 284 159 3 -2 8 -395 12 -872 6 -781
9 -869 23 -876 26 -14 659 -35 814 -27 78 3 169 12 202 19 l60 12 7 658 c3
362 9 664 11 671 8 20 255 168 274 164 17 -3 18 -48 21 -749 l2 -746 113 -6
c61 -4 159 -7 217 -7 58 0 122 -3 143 -6 36 -6 37 -8 37 -48 0 -23 -5 -47 -12
-54 -9 -9 -79 -12 -254 -12 l-242 0 -52 -71 c-34 -46 -48 -75 -42 -81 6 -6
387 -7 1076 -2 l1066 7 0 361 c0 199 3 587 7 864 l6 503 62 45 c58 41 161 94
213 109 l22 6 0 -903 c0 -786 4 -966 22 -983 2 -2 89 -7 193 -10 105 -3 228
-8 274 -11 l83 -6 -4 -59 c-2 -32 -6 -61 -9 -63 -2 -2 -134 -8 -292 -13 l-288
-8 -20 -32 -21 -33 116 0 c64 0 116 -2 116 -5 0 -12 -361 -800 -370 -809 -7
-7 -10 22 -10 82 l0 92 -1120 0 -1120 0 0 -220 0 -220 -34 0 c-19 0 -46 4 -60
9 l-25 10 -3 203 c-2 112 -7 209 -11 216 -6 9 -97 12 -397 12 l-389 0 -44 -67
c-24 -38 -42 -71 -40 -76 2 -4 40 -4 84 -1 43 4 79 4 79 0 0 -4 -7 -20 -15
-36 l-15 -29 89 -47 c50 -26 173 -109 274 -184 217 -161 308 -220 415 -266 72
-31 77 -35 80 -67 l3 -34 -138 -6 c-412 -19 -771 -151 -847 -311 -17 -36 -20
-38 -54 -33 -21 4 -49 20 -68 38 -33 32 -33 32 -112 26 -43 -3 -103 -14 -133
-24 l-54 -18 1 -75 c1 -49 12 -115 33 -191 l31 -117 -29 -88 c-16 -49 -34
-124 -40 -167 -16 -116 -13 -471 6 -737 21 -295 22 -686 2 -790 l-15 -75 -91
-3 -91 -3 -9 98 c-4 54 -8 547 -8 1096 l0 997 -55 0 c-30 0 -86 -7 -125 -15
-78 -17 -306 -85 -318 -95 -4 -4 59 -70 142 -146 127 -119 149 -143 150 -170
1 -21 -7 -38 -24 -54 -31 -29 -19 -36 -197 102 l-132 101 -15 -23 c-9 -13 -66
-96 -127 -184 l-110 -161 -51 -5 c-63 -7 -107 -39 -167 -123 -43 -60 -48 -75
-130 -392 -47 -182 -89 -348 -94 -370 -18 -76 -74 -290 -93 -357 -16 -54 -24
-68 -39 -68 -19 0 -20 8 -20 128 0 135 14 352 30 462 24 170 24 167 -11 179
-18 6 -33 10 -34 9 -1 -2 -10 -25 -19 -53 -9 -27 -23 -59 -31 -70 -15 -19 -16
-19 -48 0 -77 44 -170 130 -312 289 -157 175 -255 276 -255 262 0 -4 90 -210
201 -457 l200 -449 -49 -88 c-72 -128 -117 -218 -164 -334 l-42 -103 -2 -198
c-3 -247 -18 -299 -96 -341 -31 -17 -36 -17 -71 -3 -44 19 -44 23 -22 171 19
125 19 151 -1 209 -17 51 -61 95 -105 104 -33 6 -27 -32 -74 472 -20 206 -37
376 -38 377 -1 2 -86 -28 -187 -67 -102 -38 -232 -85 -290 -104 -107 -34 -287
-75 -333 -75 l-25 0 -6 143 c-4 78 -13 349 -22 601 -8 253 -15 461 -17 462 -1
1 -210 -335 -464 -746 l-462 -749 304 -547 304 -547 -29 -41 c-47 -67 -54
-112 -53 -320 l2 -189 -54 -60 c-41 -44 -79 -109 -150 -249 -53 -104 -111
-205 -128 -225 l-32 -36 -145 6 c-80 4 -202 14 -270 23 -234 29 -801 141 -821
161 -5 5 -220 371 -478 813 l-468 805 -134 27 c-74 15 -541 104 -1039 198
-498 94 -915 172 -926 175 -24 5 14 72 -829 -1460 -230 -418 -420 -762 -422
-764 -8 -11 -12 13 -23 139 -11 135 -40 250 -76 306 -19 28 -51 31 -93 9 -25
-12 -30 -24 -40 -77 -14 -81 -53 -132 -103 -136 -32 -3 -37 0 -47 30 -7 18
-18 103 -26 188 -8 85 -17 166 -20 178 -6 23 -6 23 -33 7 -15 -10 -39 -28 -53
-42 l-26 -24 -6 -237 c-10 -417 -59 -615 -187 -756 -51 -55 -53 -56 -107 -56
l-55 0 7 37 c3 20 29 79 56 132 45 87 51 106 61 196 11 108 4 341 -13 443 -11
61 -12 63 -58 86 -66 34 -79 52 -96 139 l-16 76 295 392 c293 390 295 393 280
420 -20 40 -72 81 -214 168 -69 42 -354 245 -635 450 -280 206 -527 386 -548
401 -21 16 -35 30 -30 33 4 3 197 60 428 127 1142 331 1661 483 1667 489 7 6
-1112 551 -1484 721 l-213 98 -34 -31 c-31 -29 -464 -507 -622 -687 -36 -41
-148 -178 -248 -303 -100 -125 -222 -269 -269 -319 -89 -94 -232 -221 -239
-214 -3 2 -27 71 -54 153 -78 234 -191 452 -369 718 -152 225 -338 447 -625
743 l-158 163 -25 -23 c-40 -37 -141 -167 -163 -209 l-19 -39 -71 0 -71 0 4
53 c5 61 44 128 132 227 l57 63 -7 61 c-4 34 -11 64 -17 68 -16 10 -342 96
-452 118 -55 12 -171 26 -257 33 -87 6 -158 14 -158 18 0 23 100 111 208 182
133 88 161 112 146 126 -5 5 -125 88 -267 185 l-257 176 -710 0 -710 0 0 -123
c0 -68 -3 -179 -7 -247 l-6 -122 -39 5 c-22 3 -41 7 -43 9 -2 1 -6 110 -10
241 l-8 237 -651 3 c-830 3 -826 3 -860 -6 -18 -5 -84 -61 -173 -149 l-143
-142 0 -145 c0 -80 -3 -210 -7 -288 -7 -156 -5 -154 -70 -137 l-23 6 0 305 c0
290 -1 303 -18 294 -32 -17 -109 -85 -152 -134 l-42 -47 61 -69 c34 -38 61
-75 61 -83 0 -40 -25 -80 -72 -114 l-51 -36 6 -127 c6 -118 34 -267 58 -312 8
-15 4 -34 -16 -84 -48 -121 -58 -231 -59 -660 -1 -214 3 -522 8 -682 l8 -293
-61 0 -61 0 0 781 0 782 -31 54 -31 54 31 86 31 85 0 311 0 311 -102 105 c-56
58 -145 150 -197 204 -161 165 -227 192 -253 103 -17 -59 -25 -63 -44 -22 -12
25 -32 43 -63 59 -44 21 -57 22 -265 21 l-220 -1 -123 -126 c-109 -112 -123
-130 -123 -161 0 -28 8 -41 45 -74 25 -22 45 -47 45 -56 0 -26 -25 -68 -59
-100 -28 -27 -31 -36 -31 -90 0 -78 14 -127 47 -166 22 -27 25 -37 19 -76 -4
-29 -17 -60 -36 -84 -30 -38 -30 -38 -30 -171 0 -74 5 -301 11 -504 12 -371 5
-623 -21 -689 -8 -23 -15 -26 -60 -26 l-50 0 -2 653 -3 652 -37 74 c-21 41
-38 80 -38 87 0 7 9 28 19 46 54 91 92 350 72 484 l-11 79 -178 178 c-97 97
-182 177 -187 177 -6 0 -37 -23 -68 -51 -56 -50 -57 -51 -57 -107 0 -41 8 -73
32 -124 l31 -69 -36 -37 -36 -37 1 -605 c1 -333 -2 -615 -6 -626 -7 -23 -32
-34 -80 -34 l-28 0 6 53 c16 131 36 454 36 568 0 179 -15 282 -52 347 l-30 52
32 92 c31 89 32 97 27 213 -3 89 -10 136 -27 183 -28 79 -103 193 -166 253
-92 86 -29 79 -674 79 -316 0 -580 -4 -587 -8 -7 -4 -19 -25 -28 -46 l-16 -39
-43 42 c-39 39 -49 43 -105 48 l-61 6 0 37 c0 20 3 58 6 84 l7 46 721 0 722 0
68 69 69 70 -11 1008 c-12 1106 -11 1118 46 1233 26 52 31 57 130 107 57 29
112 53 123 53 19 0 19 -22 19 -1200 l0 -1200 136 0 135 0 -1 1058 c-1 775 1
1071 10 1109 22 97 89 170 184 198 81 24 76 33 76 -140 l0 -155 49 25 c27 13
75 36 106 50 l57 25 -3 -1003 c-2 -915 1 -1070 20 -1081 3 -2 228 -7 499 -11
l492 -7 0 839 c0 512 -4 917 -11 1041 -12 211 -4 365 24 420 8 17 64 53 177
113 l165 88 6 -577 c3 -317 7 -842 8 -1165 1 -555 2 -588 19 -585 16 3 17 53
24 806 5 595 10 807 18 817 24 29 221 148 230 139 5 -5 12 -411 16 -901 l7
-893 1217 0 1217 0 133 93 c73 50 133 97 134 102 1 7 -249 11 -726 13 l-728 2
0 44 0 43 137 6 c75 4 169 7 210 7 l73 0 0 654 0 654 116 61 c64 34 118 61
120 61 2 0 4 -322 4 -715 l0 -715 1194 0 1194 0 374 154 373 154 6 374 c3 205
7 423 8 485 l1 112 53 34 c55 35 123 64 131 56 23 -23 51 -488 42 -695 -6
-144 -21 -299 -32 -336 -4 -15 1 -18 31 -18 53 0 87 41 155 185 31 66 66 127
76 136 20 18 64 43 143 84 l49 24 -14 53 c-18 71 -18 263 1 374 9 49 38 181
65 294 44 180 50 218 50 312 l0 106 56 48 56 48 -4 68 -4 68 -87 88 -87 87 0
234 0 234 31 48 c62 98 130 141 253 165 28 5 35 12 44 43 8 25 26 47 62 74 27
20 50 45 50 55 0 9 5 51 10 92 9 67 14 78 50 115 l40 41 0 166 0 166 -46 37
c-45 37 -46 39 -40 83 3 25 20 67 37 94 l32 49 -7 132 c-4 73 -18 223 -30 334
l-23 203 -60 62 c-33 35 -68 79 -78 98 -24 45 -25 158 -2 193 34 53 342 248
482 306 38 16 135 44 215 61 190 42 219 54 236 97 10 22 31 44 60 61 26 15 57
35 71 46 l24 19 -47 33 c-27 19 -51 40 -55 46 -12 19 6 43 61 83 l50 37 -6 97
c-4 54 -3 124 1 156 7 57 10 62 87 142 l81 82 -29 11 c-67 24 -83 33 -100 51
-9 11 -15 21 -12 24 3 3 41 25 84 48 47 25 84 52 91 67 8 15 13 65 13 128 l0
102 65 0 65 0 0 44 c0 48 -10 64 -107 168 -48 51 -83 109 -83 137 0 6 45 44
100 86 l100 76 0 143 0 144 -67 53 c-95 74 -162 143 -179 184 -21 52 -17 131
10 195 157 361 201 458 220 477 26 27 744 561 893 665 l110 76 6 79 c5 60 15
94 42 148 108 218 427 696 534 799 l40 39 -37 66 c-54 98 -51 142 22 285 31
62 72 162 91 228 63 211 154 409 253 548 139 195 334 325 533 355 l46 7 -8 46
c-20 118 -5 470 20 495 5 5 84 22 177 38 92 16 169 31 171 32 1 2 7 92 12 201
5 108 11 200 14 203 5 4 214 42 240 43 4 0 7 339 7 754 l0 755 45 37 45 36 0
173 c0 94 3 247 7 338 l6 167 108 0 108 0 -2 -272z m15623 -14025 c0 -5 -135
-456 -299 -1003 -164 -547 -297 -997 -296 -998 6 -6 350 -110 353 -107 2 2 30
90 62 197 32 106 126 417 209 692 84 274 163 550 177 613 39 182 78 274 122
287 28 8 318 76 325 76 4 0 7 -8 7 -17 0 -13 -289 -988 -545 -1838 -18 -60
-32 -111 -31 -112 4 -5 331 -91 334 -88 3 3 128 410 379 1235 91 300 169 552
174 561 19 36 155 79 298 95 59 6 63 6 58 -12 -4 -10 -114 -381 -246 -823
-133 -442 -247 -809 -255 -815 -8 -6 -164 -137 -346 -291 -204 -173 -341 -281
-356 -283 -14 -2 -66 8 -115 22 -50 14 -102 26 -118 26 -27 0 -28 -3 -41 -72
-34 -195 -125 -363 -222 -414 -27 -14 -27 -13 -33 20 -6 27 1 48 35 112 52 97
50 124 -13 232 -44 77 -45 77 -89 80 -38 2 -59 -4 -129 -42 -46 -25 -150 -79
-231 -120 l-146 -75 -16 -48 c-8 -26 -45 -145 -82 -263 l-66 -214 21 -51 c27
-64 27 -68 -7 -118 -16 -23 -57 -93 -92 -155 -62 -109 -114 -175 -166 -208
-13 -9 -27 -14 -30 -11 -3 3 16 74 41 157 l47 153 -11 92 c-14 108 -8 141 28
159 67 35 94 101 80 196 -11 77 -10 162 1 180 5 8 26 19 47 25 33 9 40 17 56
60 l18 50 -133 250 c-118 221 -137 252 -168 267 -120 58 -918 294 -936 276 -2
-3 -55 -175 -118 -384 l-114 -379 -28 2 c-60 5 -74 12 -74 40 0 15 34 141 76
281 l75 255 147 171 c305 356 475 551 481 554 7 2 937 -284 953 -294 4 -3 8
-3 8 -1 0 11 511 1704 518 1717 5 8 83 35 178 61 158 45 244 59 244 42z
m-3118 -4063 c121 -211 358 -670 358 -693 0 -8 -12 -22 -26 -31 -48 -32 -62
-20 -128 109 -34 66 -102 183 -150 260 -152 238 -203 365 -212 525 l-5 85 25
-30 c15 -16 77 -118 138 -225z m4858 52 c0 -16 -33 -214 -45 -268 -7 -34 69
-62 259 -94 66 -11 121 -22 123 -24 2 -2 -3 -35 -12 -75 -17 -84 -19 -117 -5
-126 5 -3 82 -19 172 -35 90 -17 187 -35 216 -41 l52 -10 0 -43 c0 -23 -7 -66
-15 -94 l-16 -52 -52 6 c-37 4 -64 2 -91 -10 -53 -22 -58 -21 -100 18 -79 76
-270 107 -430 72 -96 -22 -221 -83 -280 -139 l-45 -42 -45 -251 c-45 -249 -45
-251 -29 -310 l16 -59 -41 -63 c-58 -90 -74 -171 -132 -650 -31 -268 -54 -388
-94 -502 -38 -109 -48 -121 -123 -144 -20 -6 -23 -4 -23 19 0 15 25 138 55
274 101 455 161 872 149 1036 l-6 91 42 84 c50 99 55 151 21 219 l-22 42 40
44 c35 38 71 119 71 160 0 7 -49 86 -108 176 -60 90 -112 169 -115 176 -5 7
11 29 39 55 26 24 113 122 194 218 156 184 259 290 325 334 47 31 55 32 55 8z
m-5114 -1527 c-4 -11 -822 -1162 -842 -1184 -2 -3 -43 21 -87 51 -6 3 3 23 20
45 16 21 184 256 373 523 188 267 352 495 364 507 23 23 130 72 160 73 12 0
16 -5 12 -15z m-211 -2757 c10 -9 -217 -358 -230 -354 -13 4 -18 136 -10 264
l7 104 113 -4 c62 -1 117 -6 120 -10z m-10155 -721 c11 -7 17 -17 12 -22 -4
-5 -1 -5 5 -1 7 4 18 2 25 -3 89 -73 152 -106 220 -116 54 -8 52 -4 63 -150 5
-76 7 -82 40 -110 19 -16 35 -38 35 -48 0 -10 -153 -379 -340 -819 -188 -440
-339 -802 -337 -805 3 -2 209 93 458 211 698 329 725 342 848 411 116 65 215
105 257 105 29 0 81 -60 90 -104 6 -33 2 -39 -45 -83 -28 -26 -53 -60 -57 -74
-5 -26 -5 -27 57 -31 84 -6 99 -25 99 -122 0 -135 23 -170 150 -230 78 -37
167 -59 283 -71 39 -4 67 -12 67 -19 -1 -55 -41 -271 -52 -277 -22 -15 -52
-10 -106 16 -29 14 -73 30 -100 36 -66 15 -99 25 -162 48 -35 13 -80 20 -126
21 -71 0 -72 -1 -129 -47 l-56 -47 -87 22 c-57 14 -88 18 -91 11 -2 -6 -13
-22 -26 -37 l-23 -27 -63 17 c-35 9 -64 16 -65 15 -2 -1 2 -23 7 -48 9 -43 14
-48 54 -63 68 -26 72 -36 41 -107 l-26 -61 62 -62 c107 -107 131 -118 264
-128 130 -9 181 -25 188 -60 3 -13 12 -57 21 -98 26 -127 63 -191 176 -306
l101 -102 -20 -183 c-11 -101 -19 -186 -17 -188 6 -5 536 308 563 333 13 11
35 41 50 66 57 101 129 148 187 122 13 -6 42 -35 64 -64 65 -87 112 -287 126
-538 l6 -105 -48 -38 c-58 -45 -139 -77 -196 -77 -23 0 -77 11 -120 25 -132
42 -217 31 -261 -35 -20 -31 -47 -50 -115 -84 -78 -39 -91 -51 -110 -88 -12
-24 -43 -70 -70 -103 -37 -46 -59 -64 -96 -78 l-49 -17 -113 77 c-62 43 -273
188 -469 322 -196 135 -413 289 -483 343 -145 114 -272 201 -323 222 l-36 15
-68 -82 c-156 -186 -458 -477 -495 -477 -7 0 -94 80 -193 178 -432 425 -1489
1450 -1722 1669 -84 78 -182 176 -218 217 -58 65 -66 78 -57 95 6 11 318 264
694 562 932 741 959 763 1427 1162 63 55 126 103 140 109 66 26 255 29 290 5z
m-4801 -747 c564 -111 1032 -203 1039 -205 11 -4 11 -8 0 -24 -17 -24 -1787
-1391 -1954 -1509 -68 -48 -139 -98 -157 -112 -19 -14 -69 -52 -113 -85 -100
-75 -184 -154 -184 -172 0 -8 29 -47 65 -86 131 -145 405 -521 405 -555 0 -10
-849 -907 -1123 -1187 l-49 -50 -29 34 c-28 34 -59 108 -59 142 0 35 32 84 72
113 50 36 78 81 78 125 0 45 20 161 32 184 5 9 25 24 46 32 44 19 76 48 92 83
7 15 27 40 46 56 l35 29 29 -28 c29 -27 33 -38 45 -122 6 -36 11 -43 29 -43
39 0 146 89 146 121 0 10 15 30 33 46 41 34 68 74 90 131 20 50 15 52 -60 17
-52 -25 -55 -25 -106 -11 -28 9 -98 25 -155 37 -56 12 -106 27 -111 33 -12 14
27 113 60 154 13 16 61 56 106 88 l82 58 15 70 c9 39 26 122 39 184 l24 113
-40 50 c-31 40 -43 48 -61 43 -51 -15 -106 -47 -160 -96 l-58 -51 -57 30 c-31
17 -73 36 -93 42 -35 11 -98 70 -98 91 0 5 -17 21 -37 35 -40 27 -83 33 -83
13 -1 -30 -37 -258 -42 -263 -10 -11 -36 7 -42 28 -3 12 -6 99 -7 192 l-2 170
52 104 c29 57 89 167 133 245 109 190 383 693 778 1426 257 478 258 480 272
480 6 0 473 -90 1037 -200z m-4403 -603 c374 -178 729 -343 789 -367 149 -58
255 -127 229 -149 -13 -11 -1501 -426 -1619 -451 -85 -18 -216 -53 -387 -102
-51 -15 -103 -47 -92 -58 9 -7 273 -197 1071 -769 205 -146 373 -269 373 -272
0 -3 -129 -183 -288 -400 -207 -284 -294 -395 -309 -397 -29 -4 -114 59 -233
174 -118 114 -179 166 -190 159 -5 -3 -16 -29 -26 -58 -29 -88 -69 -171 -103
-209 -34 -39 -96 -80 -105 -71 -3 4 -6 27 -6 52 0 143 -50 272 -145 378 -48
53 -59 61 -78 54 -12 -5 -41 -14 -64 -20 -38 -10 -43 -16 -61 -64 -50 -132
-58 -312 -23 -452 26 -101 140 -330 245 -490 96 -146 131 -207 150 -262 l15
-42 -62 -85 c-34 -47 -69 -86 -77 -86 -8 0 -46 33 -85 73 -58 60 -84 99 -150
227 -45 88 -147 255 -234 385 -145 217 -224 356 -249 435 -6 19 -27 143 -47
275 -19 132 -40 269 -45 305 -5 36 -21 144 -35 240 -24 163 -33 196 -132 494
-71 213 -103 323 -97 332 18 26 1379 1543 1385 1543 4 1 312 -144 685 -322z
m14511 -314 c-3 -5 -105 -183 -227 -398 -123 -214 -245 -423 -273 -464 -48
-71 -103 -178 -95 -186 2 -2 169 -45 372 -94 488 -120 446 -108 446 -134 0
-29 -342 -738 -361 -748 -7 -4 -54 -16 -103 -28 -48 -11 -108 -30 -131 -41
-65 -31 -78 -59 -83 -170 -5 -106 -18 -135 -67 -156 -27 -11 -241 -64 -259
-64 -3 0 -6 29 -6 65 0 50 7 80 28 128 16 34 35 69 43 77 16 17 51 74 98 162
34 62 41 127 17 147 -19 16 -86 4 -243 -44 -65 -20 -151 -41 -190 -47 -73 -12
-73 -12 -73 -43 0 -77 -63 -215 -131 -289 -44 -48 -50 -51 -93 -50 -25 0 -52
7 -61 14 -21 17 -19 62 4 91 40 52 60 107 63 172 2 54 -2 70 -17 88 -44 49
-124 61 -225 34 -30 -8 -56 -15 -57 -15 -8 0 -1 689 7 835 14 232 37 395 58
417 9 9 283 143 607 298 325 155 639 309 699 342 60 34 134 72 165 84 56 23
96 31 88 17z m5577 -571 c54 -41 100 -110 104 -158 2 -16 -4 -62 -13 -101 -15
-66 -15 -74 0 -97 9 -14 15 -34 13 -44 -4 -25 -590 -922 -602 -922 -5 0 -6 37
-3 83 4 61 14 105 40 172 38 97 38 105 -8 155 -19 21 -24 41 -29 115 -17 253
-18 339 -6 393 12 56 17 62 203 250 219 220 217 219 301 154z m-18266 -2786
c28 -30 52 -63 52 -72 0 -10 -14 -41 -31 -70 l-32 -52 -76 31 c-92 37 -102 44
-94 65 7 20 92 134 108 144 16 12 17 11 73 -46z m8588 -398 c157 -160 264
-278 264 -290 0 -3 -32 -61 -72 -129 -39 -68 -79 -136 -87 -151 -18 -31 -24
-34 -39 -15 -11 14 -381 831 -390 861 -10 38 151 -101 324 -276z m-2508 -832
c37 -19 123 -72 192 -118 69 -47 321 -203 560 -348 379 -230 618 -376 670
-410 12 -8 5 -20 -42 -65 -51 -50 -60 -55 -100 -55 -25 0 -54 -7 -68 -17 l-25
-18 55 -7 c30 -3 78 -6 106 -7 l51 -1 47 -70 c69 -104 86 -112 226 -108 l115
3 0 -131 c0 -124 -1 -132 -25 -165 -14 -19 -54 -90 -87 -159 -73 -148 -135
-226 -190 -236 -29 -5 -39 -3 -50 11 -16 23 -17 81 -2 91 19 11 76 146 82 192
3 25 14 52 25 63 11 10 23 33 27 50 9 41 -13 62 -88 84 -68 20 -80 19 -116
-11 -48 -40 -76 -25 -134 74 l-47 81 -43 -19 c-23 -11 -58 -20 -78 -20 -32 0
-40 -7 -97 -81 -63 -83 -74 -117 -52 -159 6 -12 6 -28 0 -47 -8 -21 -6 -42 4
-78 20 -66 12 -78 -113 -155 l-99 -61 -4 -69 c-5 -91 -20 -109 -77 -91 -23 6
-45 19 -49 29 -5 9 -12 71 -16 137 -14 256 -22 315 -43 343 -29 39 -57 40 -73
3 -14 -35 -25 -39 -39 -13 -5 10 -100 310 -210 667 -110 358 -218 709 -240
781 -23 72 -41 134 -41 138 0 12 22 5 88 -28z m-6442 -295 c54 -39 70 -59 94
-116 12 -28 28 -64 36 -81 7 -17 16 -71 18 -120 4 -95 13 -144 26 -144 4 0 34
26 67 58 50 48 66 74 108 170 27 62 52 115 56 118 3 2 71 -61 150 -139 108
-107 158 -150 202 -170 31 -15 57 -32 57 -38 0 -28 -267 -404 -436 -614 -166
-206 -171 -211 -183 -200 -9 10 -53 89 -289 525 -166 308 -163 300 -163 427 0
189 51 310 141 338 64 19 72 18 116 -14z m11517 -54 c48 -49 49 -51 42 -96
-20 -134 -98 -361 -124 -361 -8 0 -11 85 -11 265 l0 266 22 -12 c12 -7 44 -34
71 -62z m-1984 -760 l584 -92 15 -43 c10 -31 25 -50 52 -67 35 -22 100 -91
100 -107 0 -3 -12 -20 -26 -37 -22 -27 -33 -31 -72 -31 -62 0 -90 26 -147 140
-24 49 -54 95 -67 104 -22 15 -22 15 -43 -59 -27 -91 -44 -112 -102 -121 -38
-6 -46 -11 -64 -45 -22 -45 -20 -52 36 -119 28 -33 33 -45 24 -56 -16 -20 -47
-18 -165 12 -58 14 -113 22 -124 19 -27 -8 -102 -72 -117 -99 -10 -17 -8 -25
8 -42 23 -25 42 -85 31 -96 -5 -5 -17 2 -29 14 -17 19 -491 784 -501 810 -2 4
2 8 10 8 7 -1 276 -42 597 -93z m-6468 -184 c69 -46 117 -160 89 -212 -22 -42
-41 -19 -91 108 -27 69 -49 126 -49 128 0 7 13 1 51 -24z m-543 -43 c86 -27
162 -50 170 -50 12 0 12 -4 -2 -25 -22 -33 -20 -43 14 -95 44 -65 40 -84 -34
-167 l-64 -72 5 -59 c6 -59 -5 -84 -25 -59 -9 11 -232 560 -232 572 0 8 8 6
168 -45z m1877 -159 c107 -32 131 -42 133 -59 3 -19 -57 -124 -78 -137 -27
-17 -137 -24 -190 -12 -54 12 -55 13 -58 50 -4 49 38 197 55 197 5 0 67 -18
138 -39z"/>
</g>
</svg>
